<?xml version="1.0" standalone="no"?>
<!DOCTYPE svg PUBLIC "-//W3C//DTD SVG 20010904//EN"
 "http://www.w3.org/TR/2001/REC-SVG-20010904/DTD/svg10.dtd">
<svg version="1.0" xmlns="http://www.w3.org/2000/svg"
 width="2888.000000pt" height="2888.000000pt" viewBox="0 0 2888.000000 2888.000000"
 preserveAspectRatio="xMidYMid meet">
<metadata>
Created by potrace 1.14, written by Peter Selinger 2001-2017
</metadata>
<g transform="translate(0.000000,2888.000000) scale(0.100000,-0.100000)"
fill="#000000" stroke="none">
<path d="M13988 28875 c-2 -1 -84 -6 -183 -10 -99 -4 -198 -8 -220 -10 -22 -1
-92 -6 -155 -10 -63 -4 -128 -8 -145 -10 -16 -2 -67 -7 -113 -10 -46 -4 -91
-8 -100 -10 -9 -1 -56 -6 -104 -9 -48 -4 -98 -9 -110 -11 -13 -2 -48 -6 -79
-10 -31 -3 -65 -7 -75 -9 -11 -2 -49 -7 -86 -10 -37 -4 -77 -9 -90 -11 -21 -3
-122 -18 -218 -31 -19 -2 -60 -9 -90 -14 -30 -5 -73 -12 -95 -15 -40 -6 -69
-11 -115 -19 -14 -3 -68 -12 -120 -21 -190 -32 -627 -123 -825 -171 -11 -3
-31 -7 -44 -10 -14 -3 -28 -7 -31 -9 -4 -2 -20 -6 -36 -9 -44 -8 -450 -118
-625 -169 -347 -102 -1079 -356 -1184 -411 -16 -9 -35 -16 -40 -16 -6 0 -64
-23 -130 -51 -66 -28 -131 -54 -145 -58 -14 -5 -54 -22 -90 -38 -36 -17 -94
-43 -130 -58 -36 -16 -103 -46 -150 -68 -47 -21 -114 -53 -150 -69 -214 -98
-570 -281 -885 -453 -124 -68 -418 -242 -645 -382 -161 -99 -641 -419 -674
-448 -9 -9 -124 -92 -199 -145 -95 -66 -574 -439 -664 -516 -12 -11 -32 -28
-45 -38 -45 -37 -294 -251 -328 -282 -19 -18 -45 -41 -57 -52 -294 -254 -891
-853 -1169 -1172 -21 -25 -41 -47 -44 -50 -5 -5 -95 -109 -147 -170 -182 -214
-164 -192 -294 -355 -154 -193 -312 -401 -422 -554 -204 -284 -354 -507 -504
-746 -62 -99 -116 -185 -120 -191 -5 -5 -14 -21 -22 -35 -150 -253 -241 -410
-241 -414 0 -3 -11 -23 -24 -44 -51 -80 -194 -352 -320 -606 -101 -203 -266
-552 -266 -562 0 -2 -11 -28 -24 -56 -13 -29 -33 -74 -45 -102 -12 -27 -26
-59 -31 -70 -53 -114 -272 -684 -334 -868 -20 -60 -43 -125 -50 -145 -22 -59
-99 -301 -141 -442 -72 -241 -107 -369 -176 -639 -44 -173 -82 -326 -84 -340
-3 -15 -7 -35 -9 -46 -15 -67 -67 -314 -71 -335 -2 -14 -16 -86 -30 -160 -14
-74 -28 -148 -30 -165 -3 -16 -7 -41 -10 -55 -2 -14 -7 -45 -10 -70 -3 -25 -8
-52 -10 -60 -5 -16 -41 -256 -50 -325 -2 -21 -9 -73 -15 -115 -5 -41 -12 -100
-15 -130 -3 -30 -7 -66 -10 -80 -3 -14 -7 -50 -9 -80 -3 -30 -7 -71 -10 -90
-3 -19 -8 -66 -11 -105 -3 -38 -8 -92 -11 -120 -6 -71 -12 -156 -19 -260 -3
-49 -8 -115 -10 -145 -27 -338 -27 -1379 0 -1710 2 -30 7 -98 10 -150 9 -158
17 -261 29 -370 3 -25 8 -72 11 -105 6 -68 10 -104 25 -230 18 -157 19 -164
24 -197 3 -18 8 -49 10 -68 3 -19 7 -55 11 -80 3 -25 8 -56 10 -70 6 -50 25
-167 39 -250 8 -47 17 -98 19 -115 5 -31 23 -131 32 -175 3 -14 7 -38 10 -55
3 -16 8 -41 10 -55 8 -40 15 -73 20 -100 3 -14 7 -36 10 -49 5 -27 52 -243 61
-282 3 -13 10 -43 14 -65 30 -143 178 -699 235 -883 9 -30 18 -62 20 -70 8
-40 210 -635 268 -791 198 -530 367 -920 623 -1435 107 -216 148 -294 228
-440 19 -33 48 -87 66 -120 53 -96 179 -313 232 -398 26 -43 48 -80 48 -82 0
-15 351 -556 497 -765 109 -156 403 -555 480 -650 7 -8 36 -44 65 -81 29 -36
67 -82 83 -104 34 -44 246 -297 255 -305 3 -3 35 -39 70 -80 35 -41 66 -77 69
-80 3 -3 44 -48 90 -100 292 -329 828 -864 1115 -1113 12 -10 37 -33 56 -50
36 -33 142 -125 194 -168 16 -13 41 -35 56 -49 15 -14 47 -41 70 -59 23 -19
48 -40 54 -45 6 -6 27 -23 46 -37 19 -15 46 -37 60 -49 24 -21 317 -250 425
-332 28 -21 55 -42 60 -46 97 -79 682 -480 900 -617 178 -111 468 -285 476
-285 4 0 14 -6 21 -12 8 -7 29 -21 48 -32 19 -10 125 -68 235 -128 110 -60
211 -115 225 -123 37 -22 469 -235 585 -290 118 -56 453 -205 460 -205 2 0 28
-11 57 -24 79 -36 447 -182 573 -228 322 -116 815 -281 905 -303 8 -2 103 -28
210 -59 160 -45 584 -154 664 -171 12 -2 64 -13 116 -25 172 -37 384 -80 425
-86 22 -3 47 -8 55 -10 29 -10 357 -64 666 -109 34 -5 264 -33 329 -40 22 -3
59 -7 82 -10 23 -3 68 -8 100 -10 32 -3 74 -7 93 -10 19 -2 69 -7 110 -10 41
-3 98 -8 125 -10 100 -8 231 -17 285 -20 30 -2 125 -7 210 -11 298 -16 1258
-9 1500 11 25 2 95 6 155 10 61 4 124 8 140 10 17 3 68 7 115 10 47 3 99 8
115 9 17 2 62 6 100 10 39 3 86 8 105 11 19 3 51 7 70 9 32 4 66 8 185 22 95
11 131 16 145 19 8 2 42 7 75 11 33 3 69 8 80 10 11 3 38 7 60 10 22 3 63 9
90 15 28 5 64 11 80 13 43 6 98 15 195 33 47 8 96 17 110 19 22 4 44 8 150 29
14 3 36 7 50 10 14 3 34 7 45 9 11 3 76 16 145 31 100 21 266 60 433 101 9 2
25 6 35 8 9 2 62 16 117 31 55 15 117 31 138 36 32 8 233 65 367 104 179 52
589 188 765 253 198 73 272 101 300 113 17 7 32 13 35 14 21 7 194 76 215 85
11 5 49 21 85 35 36 14 74 30 85 35 11 5 83 37 160 71 259 114 352 157 610
285 241 119 512 261 590 309 11 7 45 26 75 42 30 17 71 39 90 50 66 38 195
113 210 123 8 5 35 21 60 36 215 128 860 547 880 573 3 3 25 20 50 36 80 54
480 355 609 458 141 112 223 179 231 187 3 3 43 37 90 75 47 38 87 72 90 75 3
3 39 34 80 70 41 36 80 70 86 75 6 6 44 39 84 75 306 272 705 666 1016 1006
120 130 130 141 194 215 30 35 71 81 91 104 20 22 45 51 57 65 11 14 53 63 92
110 86 101 95 112 140 170 19 25 37 47 40 50 25 20 377 484 475 625 22 31 45
62 50 69 21 24 181 258 230 334 16 26 33 49 37 50 4 2 8 10 8 18 0 8 5 14 10
14 6 0 10 4 10 9 0 5 19 38 43 73 23 35 62 96 87 136 25 40 60 96 78 123 17
28 32 55 32 60 0 5 5 9 10 9 6 0 10 5 10 10 0 6 12 29 27 53 15 23 33 51 39
62 6 11 40 70 76 130 158 269 327 584 487 910 76 155 144 299 222 473 10 23
28 61 38 85 53 115 146 343 215 522 43 110 82 209 87 220 30 67 232 664 285
843 98 331 248 896 269 1014 3 16 12 56 20 90 8 35 16 74 19 88 3 14 16 84 31
155 34 172 56 284 60 315 2 14 6 34 8 45 3 11 8 43 12 70 5 28 9 52 10 55 0 3
4 27 9 53 4 27 9 58 11 68 2 11 11 70 20 132 8 62 17 123 20 137 6 37 65 539
70 605 7 84 16 194 20 230 4 38 11 147 20 300 27 437 27 1333 0 1715 -1 25 -6
88 -9 140 -4 52 -9 118 -11 145 -2 28 -7 86 -10 129 -4 44 -8 93 -10 110 -2
17 -6 61 -10 98 -3 37 -8 77 -10 90 -2 13 -6 50 -10 83 -7 78 -26 229 -40 328
-2 15 -9 64 -16 110 -15 107 -15 106 -34 222 -21 132 -21 131 -33 200 -6 33
-14 76 -17 95 -3 19 -8 42 -10 50 -2 8 -7 31 -10 50 -5 32 -18 98 -30 160 -3
14 -10 48 -15 75 -6 28 -12 59 -15 70 -2 11 -11 52 -20 90 -8 39 -17 79 -20
90 -3 11 -9 40 -14 65 -5 25 -33 137 -61 250 -29 113 -53 212 -55 220 -27 117
-160 556 -248 820 -39 118 -72 217 -72 220 -1 3 -4 12 -8 20 -3 8 -25 67 -48
130 -66 182 -218 574 -254 655 -7 17 -44 100 -81 185 -63 146 -83 191 -187
415 -124 266 -379 754 -524 1000 -16 28 -32 57 -36 65 -4 8 -15 29 -26 45 -10
17 -57 95 -105 174 -240 397 -494 775 -773 1149 -147 198 -352 462 -429 552
-12 14 -59 70 -105 125 -46 55 -86 102 -89 105 -3 3 -32 37 -65 75 -33 39 -62
72 -65 75 -3 3 -43 48 -90 100 -47 52 -89 100 -95 106 -152 170 -567 590 -771
780 -155 146 -168 157 -254 234 -40 36 -78 70 -84 75 -13 13 -352 301 -386
328 -336 273 -661 518 -936 708 -68 46 -448 299 -489 325 -28 17 -70 44 -95
60 -25 16 -92 56 -150 91 -58 34 -110 67 -117 73 -7 5 -15 10 -18 10 -3 0 -24
11 -46 26 -39 24 -77 46 -149 86 -19 11 -51 29 -70 40 -225 136 -848 449
-1200 605 -69 31 -131 60 -137 65 -7 6 -13 8 -13 4 0 -4 -18 3 -40 14 -41 21
-413 173 -530 217 -855 321 -1599 533 -2400 687 -14 3 -50 10 -80 16 -30 6
-68 13 -85 16 -54 9 -140 24 -165 29 -14 3 -70 12 -125 20 -55 9 -111 18 -124
20 -13 2 -45 7 -70 11 -85 11 -96 13 -146 20 -27 4 -54 8 -60 9 -55 6 -155 18
-175 21 -14 2 -50 7 -80 10 -30 3 -66 7 -80 9 -14 2 -56 6 -95 10 -38 3 -90 8
-115 10 -103 11 -139 15 -220 20 -47 3 -112 8 -145 10 -105 7 -248 17 -325 21
-87 5 -1127 14 -1132 9z"/>
</g>
</svg>
